<?xml version="1.0" encoding="UTF-8" standalone="no"?>
<!-- Created with Inkscape (http://www.inkscape.org/) -->

<svg
   xmlns:dc="http://purl.org/dc/elements/1.1/"
   xmlns:cc="http://creativecommons.org/ns#"
   xmlns:rdf="http://www.w3.org/1999/02/22-rdf-syntax-ns#"
   xmlns:svg="http://www.w3.org/2000/svg"
   xmlns="http://www.w3.org/2000/svg"
   xmlns:sodipodi="http://sodipodi.sourceforge.net/DTD/sodipodi-0.dtd"
   xmlns:inkscape="http://www.inkscape.org/namespaces/inkscape"
   width="93.588737mm"
   height="93.588745mm"
   viewBox="0 0 93.588737 93.588745"
   version="1.1"
   id="svg7921"
   inkscape:version="0.92.3 (2405546, 2018-03-11)"
   sodipodi:docname="celia-avatar.svg">
  <defs
     id="defs7915" />
  <sodipodi:namedview
     id="base"
     pagecolor="#ffffff"
     bordercolor="#666666"
     borderopacity="1.0"
     inkscape:pageopacity="0.0"
     inkscape:pageshadow="2"
     inkscape:zoom="0.35"
     inkscape:cx="-218.85368"
     inkscape:cy="291.23381"
     inkscape:document-units="mm"
     inkscape:current-layer="layer1"
     showgrid="false"
     fit-margin-top="0"
     fit-margin-left="0"
     fit-margin-right="0"
     fit-margin-bottom="0"
     inkscape:window-width="1366"
     inkscape:window-height="705"
     inkscape:window-x="-8"
     inkscape:window-y="-8"
     inkscape:window-maximized="1" />
  <metadata
     id="metadata7918">
    <rdf:RDF>
      <cc:Work
         rdf:about="">
        <dc:format>image/svg+xml</dc:format>
        <dc:type
           rdf:resource="http://purl.org/dc/dcmitype/StillImage" />
        <dc:title></dc:title>
      </cc:Work>
    </rdf:RDF>
  </metadata>
  <g
     inkscape:label="Layer 1"
     inkscape:groupmode="layer"
     id="layer1"
     transform="translate(-37.872297,-46.854435)">
    <g
       id="g8998"
       transform="matrix(0.68473876,0,0,0.68473876,-58.698423,440.54039)">
      <path
         inkscape:connector-curvature="0"
         id="path8960"
         d="m 277.71096,-506.60428 a 68.339012,68.339012 0 0 1 -68.33901,68.33902 68.339012,68.339012 0 0 1 -68.33901,-68.33902 68.339012,68.339012 0 0 1 68.33901,-68.33901 68.339012,68.339012 0 0 1 68.33901,68.33901 z"
         style="opacity:0.97000002;vector-effect:none;fill:#89bbfe;fill-opacity:1;stroke:none;stroke-width:0.71435922;stroke-linecap:round;stroke-linejoin:round;stroke-miterlimit:4;stroke-dasharray:none;stroke-dashoffset:0;stroke-opacity:1;paint-order:stroke fill markers" />
      <g
         transform="translate(-0.02685804)"
         id="g8898">
        <g
           id="g8858"
           transform="translate(111.88095,34.017857)">
          <g
             id="g825"
             transform="matrix(0.26458334,0,0,0.26458334,29.784523,-598.50122)">
            <path
               inkscape:connector-curvature="0"
               style="fill:#ff9870"
               d="M 105,300 H 90 c -33.091,0 -60,-26.909 -60,-60 0,-33.091 26.909,-60 60,-60 h 15 c 8.291,0 15,6.709 15,15 v 90 c 0,8.291 -6.709,15 -15,15 z"
               id="path823" />
          </g>
          <path
             inkscape:connector-curvature="0"
             transform="matrix(0.26458334,0,0,0.26458334,-111.85409,-1059.9346)"
             id="path827"
             d="m 626.32617,2161.3672 a 258.28918,258.28918 0 0 0 19.16016,14.5644 258.28918,258.28918 0 0 0 22.00976,13.4942 258.28918,258.28918 0 0 0 23.24805,11.2304 258.28918,258.28918 0 0 0 24.25391,8.8516 258.28918,258.28918 0 0 0 25.01562,6.3887 258.28918,258.28918 0 0 0 25.52735,3.8574 258.28918,258.28918 0 0 0 25.78515,1.291 258.28918,258.28918 0 0 0 18.27149,-0.6465 258.28918,258.28918 0 0 0 25.63086,-3.1113 258.28918,258.28918 0 0 0 25.1914,-5.6543 258.28918,258.28918 0 0 0 19.28711,-6.4082 c -20.12319,-15.1187 -35.01553,-37.3635 -40.67969,-63.1269 -1.8,-8.0981 -9.899,-13.2005 -18,-11.3985 -9.90101,2.099 -19.50017,3.3008 -29.70117,3.3008 -65.7,0 -120.60083,-47.4008 -132.29883,-109.8008 L 626.32617,1999 Z"
             style="fill:#ffe680;stroke-width:1" />
          <path
             inkscape:connector-curvature="0"
             transform="matrix(0.26458334,0,0,0.26458334,-111.85409,-1059.9346)"
             id="path829"
             d="m 791.32617,2221.0449 a 258.28918,258.28918 0 0 0 18.27149,-0.6465 258.28918,258.28918 0 0 0 25.63086,-3.1113 258.28918,258.28918 0 0 0 25.1914,-5.6543 258.28918,258.28918 0 0 0 19.13867,-6.3594 c -20.0804,-15.1252 -34.87416,-37.4445 -40.53125,-63.1757 -1.8,-8.0981 -9.89899,-13.2005 -18,-11.3985 -9.901,2.099 -19.50017,3.3008 -29.70117,3.3008 z"
             style="fill:#ffdd55;stroke-width:1" />
          <g
             id="g835"
             transform="matrix(0.26458334,0,0,0.26458334,29.784523,-598.50122)">
            <g
               id="g833">
              <path
                 inkscape:connector-curvature="0"
                 style="fill:#f28155"
                 d="m 422,300 h -15 c -8.291,0 -15,-6.709 -15,-15 v -90 c 0,-8.291 6.709,-15 15,-15 h 15 c 33.091,0 60,26.909 60,60 0,33.091 -26.909,60 -60,60 z m 0,-30 h 0.293 z"
                 id="path831" />
            </g>
          </g>
          <path
             inkscape:connector-curvature="0"
             style="fill:#ffc5ad;stroke-width:0.26458335"
             d="m 109.6625,-490.23372 c -0.63527,0.9525 -1.50813,1.58724 -2.54,1.82536 -3.17527,0.71438 -6.35053,1.03214 -9.604643,1.03214 -24.05089,0 -43.656251,-19.60589 -43.656251,-43.65625 v -23.8125 c 0,-1.34964 0.07938,-2.69901 0.23839,-3.96875 l 9.286611,-8.49312 c 8.095985,-1.5875 14.843125,-6.74718 18.7325,-13.73158 h 11.43 v 10.31871 c 0,3.4925 1.508125,6.66724 3.96875,8.81063 2.06375,1.905 4.841873,3.09562 7.937503,3.09562 2.22276,0 3.96875,1.74599 3.96875,3.96875 v 55.56251 c 0,2.22223 0.23839,4.20661 0.71464,6.0325 0.23786,1.03161 0.0789,2.14259 -0.47625,3.01598 z"
             id="path837" />
          <path
             inkscape:connector-curvature="0"
             style="fill:#ffac8c;stroke-width:0.26458335"
             d="m 109.6625,-490.23372 c -0.63527,0.9525 -1.50813,1.58724 -2.54,1.82536 -3.17527,0.71438 -6.35053,1.03214 -9.604643,1.03214 v -74.53312 c 2.06375,1.905 4.841873,3.09562 7.937503,3.09562 2.22276,0 3.96875,1.74599 3.96875,3.96875 v 55.5625 c 0,2.22224 0.23839,4.20661 0.71464,6.0325 0.23786,1.03188 0.0789,2.14286 -0.47625,3.01625 z"
             id="path839" />
          <path
             style="stroke-width:0.26458335"
             inkscape:connector-curvature="0"
             d="M 79.355005,-589.94112"
             id="path841" />
          <path
             inkscape:connector-curvature="0"
             style="fill:#ffdd55;stroke-width:0.26458335"
             d="m 85.611607,-596.83462 c -15.319375,4.2865 -27.464015,16.8275 -30.797501,33.02028 -0.07937,0.0794 -0.07937,0.15901 -0.07937,0.23786 -0.23786,0.79401 -0.555889,3.81026 -0.634735,4.76276 h 4.603486 c 10.95375,-0.23839 20.558125,-5.47687 26.908125,-13.41437 l 4.637881,-4.26613 1.307571,-12.8244 z"
             id="path843" />
          <g
             id="g847"
             transform="matrix(0.26458334,0,0,0.26458334,29.784523,-598.50122)">
            <path
               style="fill:#57555c"
               d="m 211,195 a 15,15 0 0 1 -15,15 15,15 0 0 1 -15,-15 15,15 0 0 1 15,-15 15,15 0 0 1 15,15 z"
               id="circle845"
               inkscape:connector-curvature="0" />
          </g>
          <g
             id="g851"
             transform="matrix(0.26458334,0,0,0.26458334,29.784523,-598.50122)">
            <path
               inkscape:connector-curvature="0"
               style="fill:#fd6244"
               d="M 293.5,320.099 C 282.1,326.4 269.2,330 256,330 c -20.099,0 -39,-7.8 -53.101,-21.901 -5.7,-5.999 -5.7,-15.298 0,-21.299 6,-5.7 15.3,-5.7 21.301,0 8.399,8.399 20.099,12.9 31.8,12.9 7.8,0.3 15.601,-1.8 22.5,-5.7 7.2,-4.2 16.199,-1.8 20.4,5.4 4.201,7.2 1.8,16.499 -5.4,20.699 z"
               id="path849" />
          </g>
          <path
             inkscape:connector-curvature="0"
             style="fill:#fd4e26;stroke-width:0.26458335"
             d="m 107.43973,-513.80836 c -3.01625,1.66714 -6.42937,2.61964 -9.921873,2.61964 v -8.01687 c 2.06375,0.0794 4.127763,-0.47625 5.953123,-1.50813 1.905,-1.11125 4.28599,-0.47625 5.3975,1.42875 1.11152,1.905 0.47625,4.36536 -1.42875,5.47661 z"
             id="path853" />
          <path
             inkscape:connector-curvature="0"
             transform="matrix(0.26458334,0,0,0.26458334,-111.85409,-1059.9346)"
             id="path855"
             d="m 845.40625,2215.002 a 258.28918,258.28918 0 0 0 15.01367,-3.3692 258.28918,258.28918 0 0 0 24.5,-8.1406 258.28918,258.28918 0 0 0 23.56641,-10.5469 258.28918,258.28918 0 0 0 22.39453,-12.8476 258.28918,258.28918 0 0 0 21.00195,-15.0176 258.28918,258.28918 0 0 0 4.44336,-3.9024 V 1909 c 0,-78.9001 -55.79939,-145.2006 -129.90039,-161.0996 -11.4,-2.7012 -23.09861,-3.9004 -35.09961,-3.9004 -15.601,0 -30.601,2.0998 -45,6.2988 V 1849 c 0,30.899 18.6,57.2992 45,68.6992 4.799,2.1 9.901,3.8998 15,4.8008 V 2119 c 0,10.8 1.2008,21.0002 3.30078,29.6992 5.70791,25.6856 18.42176,48.4022 35.7793,66.3028 z"
             style="fill:#ffdd55;stroke-width:1" />
          <path
             inkscape:connector-curvature="0"
             transform="matrix(0.26458334,0,0,0.26458334,-111.85409,-1059.9346)"
             id="path857"
             d="m 845.40625,2215.002 a 258.28918,258.28918 0 0 0 15.01367,-3.3692 258.28918,258.28918 0 0 0 24.5,-8.1406 258.28918,258.28918 0 0 0 23.56641,-10.5469 258.28918,258.28918 0 0 0 22.39453,-12.8476 258.28918,258.28918 0 0 0 21.00195,-15.0176 258.28918,258.28918 0 0 0 4.44336,-3.9024 V 1909 c 0,-78.9001 -55.79939,-145.2006 -129.90039,-161.0996 -11.4,-2.7012 -23.09861,-3.9004 -35.09961,-3.9004 v 173.6992 c 4.799,2.1 9.901,3.8998 15,4.8008 V 2119 c 0,10.8 1.2008,21.0002 3.30078,29.6992 5.70791,25.6856 18.42176,48.4022 35.7793,66.3028 z"
             style="fill:#ffd42a;stroke-width:1" />
        </g>
      </g>
    </g>
  </g>
</svg>
