<?xml version="1.0" encoding="UTF-8"?>
<!-- Created with Inkscape (http://www.inkscape.org/) -->
<svg width="210mm" height="297mm" version="1.1" viewBox="0 0 210 297" xmlns="http://www.w3.org/2000/svg" xmlns:cc="http://creativecommons.org/ns#" xmlns:dc="http://purl.org/dc/elements/1.1/" xmlns:rdf="http://www.w3.org/1999/02/22-rdf-syntax-ns#" xmlns:xlink="http://www.w3.org/1999/xlink">
 <defs>
  <linearGradient id="linearGradient877" x1="154.91" x2="150.63" y1="294.38" y2="262.84" gradientUnits="userSpaceOnUse">
   <stop stop-color="#999" offset="0"/>
   <stop stop-color="#e6e6e6" offset="1"/>
  </linearGradient>
  <linearGradient id="linearGradient4852" x1="587" x2="587" y1="759.52" y2="869.19" gradientTransform="matrix(.89572 0 0 .89572 60.653 86.778)" gradientUnits="userSpaceOnUse">
   <stop stop-color="#fff" offset="0"/>
   <stop stop-color="#fff" stop-opacity="0" offset="1"/>
  </linearGradient>
  <filter id="filter4842" x="-.0087729" y="-.018983" width="1.0175" height="1.038" color-interpolation-filters="sRGB">
   <feGaussianBlur stdDeviation="1.0297329"/>
  </filter>
 </defs>
 <metadata>
  <rdf:RDF>
   <cc:Work rdf:about="">
    <dc:format>image/svg+xml</dc:format>
    <dc:type rdf:resource="http://purl.org/dc/dcmitype/StillImage"/>
    <dc:title/>
   </cc:Work>
  </rdf:RDF>
 </metadata>
 <g transform="matrix(.2684 0 0 .20722 140.72 20.089)">
  <g transform="translate(-234.26 -150.18)" stroke-width="4.2403">
   <g stroke-width="4.2403">
    <g transform="matrix(.60038 -.60039 .60039 .6004 -89.835 191.32)" stroke-width="4.9939">
     <g stroke-width="4.9939">
      <g stroke-width="4.9939">
       <g stroke-opacity="0" stroke-width="4.9939">
        <path d="m130.75 258.24c-6.0887 0.0645-12.553 1.7464-19.583 6.1252a47.096 47.096 0 0 0 44.146 30.785 47.096 47.096 0 0 0 44.017-30.507c-7.6082 6.3166-14.675 8.1212-21.526 7.582-6.945-0.5466-13.664-3.486-20.54-6.5262-6.8759-3.0402-13.909-6.183-21.471-7.1556-1.6541-0.21276-3.3336-0.32197-5.0426-0.30386z" fill="#808080"/>
        <path d="m155.31 200.96a47.096 47.096 0 0 0-44.011 30.489c6.6757-4.0994 12.863-5.792 18.7-5.98 1.9773-0.0637 3.9148 0.0452 5.8172 0.2899 7.6098 0.97883 14.664 4.1343 21.539 7.1742 6.8753 3.0399 13.57 5.9635 20.457 6.5056 6.8774 0.54127 13.949-1.2816 21.623-7.7535a47.096 47.096 0 0 0-44.126-30.725z" fill="#0a4"/>
        <path d="m157.69 205.27a47.096 47.096 0 0 0-5.2033 0.22893 47.096 47.096 0 0 0-35.856 23.124c4.6772-2.0825 9.1161-3.0236 13.368-3.1605 1.9773-0.0637 3.9148 0.0452 5.8172 0.2899 7.6098 0.97883 14.664 4.1343 21.539 7.1742 0.84559 0.37388 1.6882 0.74593 2.529 1.1121 4.5896-2.4453 9.3464-4.6214 14.464-5.8079 1.8686-0.43317 3.7856-0.73488 5.7593-0.86868 5.8351-0.39557 12.171 0.67523 19.236 4.101a47.096 47.096 0 0 0-0.063-0.14677 47.096 47.096 0 0 0-41.59-26.046z" opacity=".367"/>
        <path d="m155.31 200.96a47.096 47.096 0 0 0-44.105 30.748c7.6633 6.4525 14.726 8.2709 21.595 7.7303 6.8872-0.54204 13.582-3.4656 20.457-6.5056 6.8752-3.0399 13.929-6.1954 21.539-7.1742 1.9024-0.24467 3.84-0.3536 5.8172-0.2899 5.8526 0.18854 12.058 1.8894 18.755 6.0136a47.096 47.096 0 0 0-44.058-30.522z" fill="#2aff80"/>
        <path d="m150.63 262.84c-5.6295 3.1728-11.212 6.035-17.148 7.1267-6.7625 1.2437-13.982 0.17542-22.206-5.3299a47.096 47.096 0 0 0 0.0806 0.18912 47.096 47.096 0 0 0 46.862 25.623 47.096 47.096 0 0 0 34.751-21.468c-5.2477 2.8148-10.265 3.6315-15.172 3.2453-6.945-0.5466-13.664-3.486-20.54-6.5262-2.1888-0.96779-4.3938-1.945-6.6265-2.8603z" opacity=".367"/>
        <path d="m179.14 258.24c-1.4576 0.0152-2.8936 0.1215-4.3114 0.30386-7.5614 0.97261-14.595 4.1154-21.471 7.1556-6.8759 3.0402-13.595 5.9796-20.54 6.5262-6.8661 0.54039-13.948-1.2729-21.575-7.6228a47.096 47.096 0 0 0 44.067 30.547 47.096 47.096 0 0 0 44.124-30.798c-7.3041-4.5443-13.997-6.1782-20.293-6.1123z" fill="url(#linearGradient877)"/>
        <path transform="matrix(.29538 0 0 .29538 -17.916 -25.633)" d="m586.15 767.1c-5.3925 0.0204-10.795 0.30649-16.184 0.86914-14.631 1.3707-29.163 4.9191-43.076 10.281a150 150 0 0 0-86.076 103.9c32.29 21.093 75.688 18.603 110.25 2.0449 52.519-23.275 112.81-53.862 171.45-32.408a150 150 0 0 0-74.611-73.172c-19.632-7.5631-40.625-11.591-61.756-11.512z" fill="url(#linearGradient4852)" filter="url(#filter4842)"/>
       </g>
      </g>
     </g>
    </g>
   </g>
  </g>
  <g transform="matrix(1.8827 0 0 1.8827 -2192.6 -984.29)" fill="#00431b" stroke-width=".59589" style="font-feature-settings:normal;font-variant-caps:normal;font-variant-ligatures:normal;font-variant-numeric:normal" aria-label="Orbienge">
   <path d="m1179.7 575.19v-2.96q0-7.3201-0.7201-9.2402-0.8-2.2-2.28-2.72-0.84-0.32-2.04-0.32-1.2001 0-2.0801 0.32-0.84 0.32001-1.4 1.12-0.56 0.80002-0.92 1.68-0.32 0.88002-0.52 2.48-0.24 2.32-0.24 6.8401v2.88q0 4.8801 0.36 6.9601 0.4 2.04 0.96 2.92 1.24 1.96 3.8401 1.96 3.16 0 4.08-2.64 0.9601-2.68 0.9601-9.2802zm-5.1201 12.76q-6.6802 0-10-3.6001-3.2801-3.6401-3.2801-10.48 0-6.8801 3.5201-10.8 3.5601-3.9601 10.04-3.9601t9.7601 3.7601q3.3201 3.7201 3.3201 10.6t-3.3601 10.68q-3.32 3.8001-10 3.8001z" style="font-feature-settings:normal;font-variant-caps:normal;font-variant-ligatures:normal;font-variant-numeric:normal"/>
   <path d="m1203.3 569.63q-1.4801 0-2.6001 1.92-1.12 1.92-1.12 4.5601v10.72h2.84v0.72001h-12.48v-0.72001h2.2001v-17.6h-2.2001v-0.72001h9.6402v3.8401q0.52-2.04 2-3.1201 1.4801-1.12 3.3601-1.12t3.04 1.08q1.2001 1.04 1.2001 3.0001 0 1.92-0.8801 2.96-0.88 1.04-2.72 1.04-1.8 0-2.6801-1.2-0.84-1.2-0.2-3.3201h1.4401q1-2.04-0.84-2.04z" style="font-feature-settings:normal;font-variant-caps:normal;font-variant-ligatures:normal;font-variant-numeric:normal"/>
   <path d="m1224 576.79q0-4.1201-0.4-5.5201-0.4-1.44-1.56-1.44t-2.08 1.44q-0.9201 1.44-0.9201 3.9601v7.4401q0 1.72 0.68 2.92 0.7201 1.2 2.0001 1.2 1.32 0 1.8-1.76t0.48-6.1601zm-4.9601-19.24v14q1.5201-3.4401 5.2001-3.4401 7.4802 0 7.4802 9.9602 0 5.0801-2.0801 7.4801-2.04 2.4-6.1601 2.4-2.08 0-3.2-0.64001-1.0801-0.64001-1.4801-2.12l-0.28 2.36h-9.1201v-0.72001h2.2v-28.561h-2.2v-0.72002z" style="font-feature-settings:normal;font-variant-caps:normal;font-variant-ligatures:normal;font-variant-numeric:normal"/>
   <path d="m1238.7 565.75q-2.12 0-3.04-1.08-0.8801-1.08-0.8801-2.68 0-1.6 0.9601-2.64 1-1.04 3-1.04 2.0001 0 3.0401 0.96002 1.04 0.92001 1.04 2.68 0 1.72-1 2.76t-3.1201 1.04zm-6.0401 2.76h9.8002v18.32h2.24v0.72001h-11.88v-0.72001h2.2v-17.6h-2.36z" style="font-feature-settings:normal;font-variant-caps:normal;font-variant-ligatures:normal;font-variant-numeric:normal"/>
   <path d="m1256 587.95q-5.1601 0-7.7602-2.64-2.56-2.68-2.56-7.4001 0-4.7601 2.88-7.2801 2.9201-2.52 7.4002-2.52 9.0801 0 8.7201 9.1202h-11.28v1.56q0 3.9201 1 5.9201 1.0001 2 3.4801 2 4.6401 0 6.0801-4.9601l0.72 0.12q-0.76 2.88-2.76 4.4801-1.9601 1.6-5.9201 1.6zm-2.5601-11.52h4.1201v-1.96q0-3.2401-0.4-4.4001-0.36-1.2-1.52-1.2-1.1201 0-1.6801 1.28-0.52 1.24-0.52 4.3201z" style="font-feature-settings:normal;font-variant-caps:normal;font-variant-ligatures:normal;font-variant-numeric:normal"/>
   <path d="m1266.2 568.51h9.6401v3.6801q0.64-1.84 1.9601-2.9601 1.32-1.12 4-1.12 6.2001 0 6.2001 6.6801v12.04h2.2401v0.72001h-11.32v-0.72001h1.64v-13q0-2.4-0.32-3.0801-0.32-0.72001-1.16-0.72001-1.28 0-2.2801 1.68-0.96 1.68-0.96 4.0801v11.04h1.7201v0.72001h-11.36v-0.72001h2.2v-17.6h-2.2z" style="font-feature-settings:normal;font-variant-caps:normal;font-variant-ligatures:normal;font-variant-numeric:normal"/>
   <path d="m1306.8 566.43 1.12-0.68001q0.24-1.24-0.96-1.24-1.7201 0-1.7201 2.64 0 1.04 0.28 2.4 3.0401 2.04 3.0401 5.2401 0 3.1601-2.2 4.9201-2.2001 1.76-5.9601 1.76-1.5601 0-3.2401-0.32-1.76 1.12-1.76 1.68t2.56 0.56001h4.0801q9.0801 0 9.0801 6.5201 0 3.5201-2.76 5.5601-2.7201 2.08-8.5202 2.08-9.8801 0-9.8801-4.2801 0-2.32 3.08-3.2001l2.4001 1.08q-0.32 1.16-0.32 2.2 0 3.4401 5.12 3.4401 3.1201 0 4.8001-1.16 1.6801-1.16 1.6801-2.88t-1.0401-2.32q-1-0.56001-4.04-0.56001h-3.8801q-3.2401 0-4.6401-1.08-1.4-1.08-1.4-2.64 0-1.6 1-2.64 1-1.08 3.5601-2.64-4.6401-1.32-4.6401-6.0801 0-3 2.16-4.8401 2.1601-1.84 6.4801-1.84 2.6001 0 4.4401 1-0.24-1.08-0.24-1.96 0-2.24 1.2-3.2401 1.2001-1 2.6801-1t2.36 0.80002q0.9201 0.76001 0.9201 2.12 0 1.36-0.7201 2.04-0.72 0.64001-1.76 0.64001-1 0-1.68-0.52001-0.64-0.56001-0.68-1.56zm-8.4802 7.4801v2.16q0 2.68 0.44 3.6401 0.48 0.96002 1.4 0.96002 0.9601 0 1.3601-0.92002 0.44-0.96001 0.44-3.8801v-1.96q0-3.1201-0.4-4.0801-0.4-1-1.3601-1-0.92 0-1.4 1.04-0.48 1-0.48 4.0401z" style="font-feature-settings:normal;font-variant-caps:normal;font-variant-ligatures:normal;font-variant-numeric:normal"/>
   <path d="m1321 587.95q-5.1601 0-7.7601-2.64-2.5601-2.68-2.5601-7.4001 0-4.7601 2.8801-7.2801 2.92-2.52 7.4001-2.52 9.0802 0 8.7202 9.1202h-11.28v1.56q0 3.9201 1 5.9201 1 2 3.4801 2 4.64 0 6.0801-4.9601l0.72 0.12q-0.76 2.88-2.7601 4.4801-1.96 1.6-5.9201 1.6zm-2.56-11.52h4.12v-1.96q0-3.2401-0.4-4.4001-0.36-1.2-1.52-1.2-1.12 0-1.68 1.28-0.52 1.24-0.52 4.3201z" style="font-feature-settings:normal;font-variant-caps:normal;font-variant-ligatures:normal;font-variant-numeric:normal"/>
  </g>
 </g>
</svg>
