<?xml version="1.0" encoding="UTF-8" standalone="no"?>
<!-- Created with Inkscape (http://www.inkscape.org/) -->

<svg
   xmlns:dc="http://purl.org/dc/elements/1.1/"
   xmlns:cc="http://creativecommons.org/ns#"
   xmlns:rdf="http://www.w3.org/1999/02/22-rdf-syntax-ns#"
   xmlns:svg="http://www.w3.org/2000/svg"
   xmlns="http://www.w3.org/2000/svg"
   xmlns:xlink="http://www.w3.org/1999/xlink"
   xmlns:sodipodi="http://sodipodi.sourceforge.net/DTD/sodipodi-0.dtd"
   xmlns:inkscape="http://www.inkscape.org/namespaces/inkscape"
   width="210mm"
   height="297mm"
   viewBox="0 0 210 297"
   version="1.1"
   id="svg1448"
   inkscape:version="0.92.3 (2405546, 2018-03-11)"
   sodipodi:docname="Orbienge-logo.svg">
  <defs
     id="defs1442">
    <linearGradient
       inkscape:collect="always"
       xlink:href="#linearGradient873"
       id="linearGradient877"
       gradientUnits="userSpaceOnUse"
       x1="154.90942"
       y1="294.38077"
       x2="150.63474"
       y2="262.83667" />
    <linearGradient
       inkscape:collect="always"
       id="linearGradient873">
      <stop
         style="stop-color:#999999;stop-opacity:1"
         offset="0"
         id="stop869" />
      <stop
         style="stop-color:#e6e6e6;stop-opacity:1"
         offset="1"
         id="stop871" />
    </linearGradient>
    <linearGradient
       inkscape:collect="always"
       xlink:href="#linearGradient4850"
       id="linearGradient4852"
       x1="587"
       y1="759.51953"
       x2="587"
       y2="869.19153"
       gradientUnits="userSpaceOnUse"
       gradientTransform="matrix(0.89572387,0,0,0.89572387,60.653473,86.777711)" />
    <linearGradient
       inkscape:collect="always"
       id="linearGradient4850">
      <stop
         style="stop-color:#ffffff;stop-opacity:1;"
         offset="0"
         id="stop4846" />
      <stop
         style="stop-color:#ffffff;stop-opacity:0;"
         offset="1"
         id="stop4848" />
    </linearGradient>
    <filter
       inkscape:collect="always"
       style="color-interpolation-filters:sRGB"
       id="filter4842"
       x="-0.0087729208"
       width="1.0175458"
       y="-0.018982703"
       height="1.0379654">
      <feGaussianBlur
         inkscape:collect="always"
         stdDeviation="1.0297329"
         id="feGaussianBlur4844" />
    </filter>
  </defs>
  <sodipodi:namedview
     id="base"
     pagecolor="#ffffff"
     bordercolor="#666666"
     borderopacity="1.0"
     inkscape:pageopacity="0.0"
     inkscape:pageshadow="2"
     inkscape:zoom="0.7"
     inkscape:cx="579.37471"
     inkscape:cy="915.5515"
     inkscape:document-units="mm"
     inkscape:current-layer="layer1"
     showgrid="false"
     inkscape:window-width="1366"
     inkscape:window-height="705"
     inkscape:window-x="-8"
     inkscape:window-y="-8"
     inkscape:window-maximized="1"
     showborder="false" />
  <metadata
     id="metadata1445">
    <rdf:RDF>
      <cc:Work
         rdf:about="">
        <dc:format>image/svg+xml</dc:format>
        <dc:type
           rdf:resource="http://purl.org/dc/dcmitype/StillImage" />
        <dc:title></dc:title>
      </cc:Work>
    </rdf:RDF>
  </metadata>
  <g
     inkscape:label="Layer 1"
     inkscape:groupmode="layer"
     id="layer1">
    <g
       id="g51"
       transform="matrix(0.26839866,0,0,0.20722086,140.72175,20.08851)"
       style="stroke-width:4.24026632">
      <g
         transform="translate(-234.26047,-150.18092)"
         id="g886"
         style="stroke-width:4.24026632">
        <g
           id="g895"
           style="stroke-width:4.24026632">
          <g
             style="stroke-width:4.99394703"
             transform="matrix(0.60037842,-0.60039432,0.6003876,0.6004035,-89.834621,191.31797)"
             id="g937">
            <g
               style="stroke-width:4.99394703"
               id="g925">
              <g
                 style="stroke-width:4.99394703"
                 id="g914">
                <g
                   style="stroke-width:4.99394703"
                   id="g904">
                  <path
                     id="path4653"
                     d="m 130.74809,258.23746 c -6.08868,0.0645 -12.55281,1.74643 -19.5833,6.12521 a 47.095833,47.095833 0 0 0 44.14562,30.78519 47.095833,47.095833 0 0 0 44.01747,-30.50664 c -7.60823,6.31661 -14.67509,8.12117 -21.52633,7.58195 -6.94496,-0.5466 -13.66445,-3.48601 -20.54035,-6.52621 -6.87589,-3.04019 -13.90909,-6.18303 -21.47052,-7.15564 -1.65406,-0.21276 -3.33365,-0.32197 -5.04259,-0.30386 z"
                     style="opacity:1;fill:#808080;fill-opacity:1;stroke:#000000;stroke-width:3.17115498;stroke-miterlimit:4;stroke-dasharray:none;stroke-opacity:0"
                     inkscape:connector-curvature="0" />
                  <path
                     id="path4752"
                     d="m 155.31041,200.95621 a 47.095833,47.095833 0 0 0 -44.01074,30.48857 c 6.67567,-4.09942 12.86323,-5.79197 18.69963,-5.97999 1.97726,-0.0637 3.91477,0.0452 5.81722,0.2899 7.60976,0.97883 14.664,4.13433 21.53925,7.17424 6.87526,3.03992 13.56992,5.96351 20.45715,6.50555 6.87741,0.54127 13.94925,-1.28163 21.62348,-7.75353 a 47.095833,47.095833 0 0 0 -44.12599,-30.72474 z"
                     style="opacity:1;fill:#00aa44;fill-opacity:1;stroke:#000000;stroke-width:3.17115498;stroke-miterlimit:4;stroke-dasharray:none;stroke-opacity:0"
                     inkscape:connector-curvature="0" />
                  <path
                     id="path4807"
                     d="m 157.69063,205.27222 a 47.095833,47.095833 0 0 0 -5.2033,0.22893 47.095833,47.095833 0 0 0 -35.85569,23.12417 c 4.67717,-2.08251 9.11611,-3.02357 13.36766,-3.16053 1.97726,-0.0637 3.91477,0.0452 5.81722,0.2899 7.60976,0.97883 14.664,4.13433 21.53925,7.17424 0.84559,0.37388 1.68822,0.74593 2.52904,1.11208 4.58962,-2.44532 9.3464,-4.62139 14.46424,-5.80792 1.86856,-0.43317 3.78558,-0.73488 5.75933,-0.86868 5.83507,-0.39557 12.17115,0.67523 19.23552,4.10105 a 47.095833,47.095833 0 0 0 -0.063,-0.14677 47.095833,47.095833 0 0 0 -41.59023,-26.04647 z"
                     style="opacity:0.36700056;fill:#000000;fill-opacity:1;stroke:#000000;stroke-width:3.17115498;stroke-miterlimit:4;stroke-dasharray:none;stroke-opacity:0"
                     inkscape:connector-curvature="0" />
                  <path
                     id="path4803"
                     d="M 155.31041,200.95621 A 47.095833,47.095833 0 0 0 111.2051,231.7042 c 7.66331,6.4525 14.72612,8.27088 21.59506,7.73028 6.88722,-0.54204 13.58189,-3.46563 20.45715,-6.50555 6.87525,-3.03991 13.92948,-6.19541 21.53925,-7.17424 1.90244,-0.24467 3.83997,-0.3536 5.81722,-0.2899 5.85258,0.18854 12.05803,1.8894 18.75493,6.01359 a 47.095833,47.095833 0 0 0 -44.0583,-30.52217 z"
                     style="opacity:1;fill:#2aff80;fill-opacity:1;stroke:#000000;stroke-width:3.17115498;stroke-miterlimit:4;stroke-dasharray:none;stroke-opacity:0"
                     inkscape:connector-curvature="0" />
                  <path
                     id="path4814"
                     d="m 150.63473,262.83667 c -5.62954,3.17276 -11.21232,6.035 -17.14831,7.1267 -6.76248,1.24367 -13.98151,0.17542 -22.20588,-5.3299 a 47.095833,47.095833 0 0 0 0.0806,0.18912 47.095833,47.095833 0 0 0 46.86174,25.62323 47.095833,47.095833 0 0 0 34.75085,-21.46792 c -5.24774,2.81482 -10.26533,3.63146 -15.1722,3.24527 -6.94496,-0.5466 -13.66445,-3.48601 -20.54035,-6.52621 -2.18881,-0.96779 -4.39381,-1.94502 -6.62647,-2.86029 z"
                     style="opacity:0.36700056;fill:#000000;fill-opacity:1;stroke:#000000;stroke-width:3.17115498;stroke-miterlimit:4;stroke-dasharray:none;stroke-opacity:0"
                     inkscape:connector-curvature="0" />
                  <path
                     id="circle4708"
                     d="m 179.14152,258.23746 c -1.45764,0.0152 -2.8936,0.1215 -4.31137,0.30386 -7.56142,0.97261 -14.59514,4.11544 -21.47104,7.15564 -6.87589,3.0402 -13.59538,5.97961 -20.54034,6.52621 -6.86609,0.54039 -13.94838,-1.27291 -21.57543,-7.62277 a 47.095833,47.095833 0 0 0 44.06707,30.54746 47.095833,47.095833 0 0 0 44.12393,-30.79811 c -7.30413,-4.5443 -13.99708,-6.17815 -20.29282,-6.11229 z"
                     style="opacity:1;fill:url(#linearGradient877);fill-opacity:1;stroke:#000000;stroke-width:3.17115498;stroke-miterlimit:4;stroke-dasharray:none;stroke-opacity:0"
                     inkscape:connector-curvature="0" />
                  <path
                     inkscape:connector-curvature="0"
                     id="path4819"
                     transform="matrix(0.29538493,0,0,0.29538493,-17.916122,-25.632828)"
                     d="m 586.14648,767.09766 c -5.39251,0.0204 -10.79453,0.30649 -16.18359,0.86914 -14.63067,1.3707 -29.16267,4.91912 -43.07617,10.28125 a 150.00001,150.00001 0 0 0 -86.07617,103.89648 c 32.29003,21.09297 75.68809,18.60281 110.25,2.04492 52.51936,-23.27544 112.80854,-53.86175 171.45312,-32.4082 a 150.00001,150.00001 0 0 0 -74.61133,-73.17187 c -19.63192,-7.56307 -40.62514,-11.59149 -61.75586,-11.51172 z"
                     style="opacity:1;fill:url(#linearGradient4852);fill-opacity:1;stroke:#000000;stroke-width:10.73567104;stroke-miterlimit:4;stroke-dasharray:none;stroke-opacity:0;filter:url(#filter4842)" />
                </g>
              </g>
            </g>
          </g>
        </g>
      </g>
      <flowRoot
         transform="matrix(1.8827412,0,0,1.8827412,-2192.6377,-984.294)"
         style="font-style:normal;font-variant:normal;font-weight:normal;font-stretch:normal;font-size:40.00071716px;line-height:1.25;font-family:'Abril Fatface';-inkscape-font-specification:'Abril Fatface, Normal';font-variant-ligatures:normal;font-variant-caps:normal;font-variant-numeric:normal;font-feature-settings:normal;text-align:start;letter-spacing:0px;word-spacing:0px;writing-mode:lr-tb;text-anchor:start;fill:#00431b;fill-opacity:1;stroke:none;stroke-width:0.59588844"
         id="flowRoot4877"
         xml:space="preserve"><flowRegion
           style="font-style:normal;font-variant:normal;font-weight:normal;font-stretch:normal;font-size:40.00071716px;font-family:'Abril Fatface';-inkscape-font-specification:'Abril Fatface, Normal';font-variant-ligatures:normal;font-variant-caps:normal;font-variant-numeric:normal;font-feature-settings:normal;text-align:start;writing-mode:lr-tb;text-anchor:start;fill:#00431b;fill-opacity:1;stroke-width:0.59588844"
           id="flowRegion4879"><rect
             style="font-style:normal;font-variant:normal;font-weight:normal;font-stretch:normal;font-size:40.00071716px;font-family:'Abril Fatface';-inkscape-font-specification:'Abril Fatface, Normal';font-variant-ligatures:normal;font-variant-caps:normal;font-variant-numeric:normal;font-feature-settings:normal;text-align:start;writing-mode:lr-tb;text-anchor:start;fill:#00431b;fill-opacity:1;stroke-width:0.59588844"
             y="551.17743"
             x="1159.6552"
             height="854.185"
             width="2262.7417"
             id="rect4881" /></flowRegion><flowPara
           style="font-style:normal;font-variant:normal;font-weight:normal;font-stretch:normal;font-size:40.00071716px;font-family:'Abril Fatface';-inkscape-font-specification:'Abril Fatface, Normal';font-variant-ligatures:normal;font-variant-caps:normal;font-variant-numeric:normal;font-feature-settings:normal;text-align:start;writing-mode:lr-tb;text-anchor:start;fill:#00431b;fill-opacity:1;stroke-width:0.59588844"
           id="flowPara4883">Orbienge</flowPara></flowRoot>    </g>
  </g>
</svg>
