<?xml version="1.0" encoding="UTF-8" standalone="no"?>
<!-- Created with Inkscape (http://www.inkscape.org/) -->

<svg
   xmlns:dc="http://purl.org/dc/elements/1.1/"
   xmlns:cc="http://creativecommons.org/ns#"
   xmlns:rdf="http://www.w3.org/1999/02/22-rdf-syntax-ns#"
   xmlns:svg="http://www.w3.org/2000/svg"
   xmlns="http://www.w3.org/2000/svg"
   xmlns:xlink="http://www.w3.org/1999/xlink"
   xmlns:sodipodi="http://sodipodi.sourceforge.net/DTD/sodipodi-0.dtd"
   xmlns:inkscape="http://www.inkscape.org/namespaces/inkscape"
   width="120.15492mm"
   height="20.142284mm"
   viewBox="0 0 120.15492 20.142284"
   version="1.1"
   id="svg1448"
   inkscape:version="0.92.3 (2405546, 2018-03-11)"
   sodipodi:docname="Orbienge-logo3.svg">
  <defs
     id="defs1442">
    <linearGradient
       inkscape:collect="always"
       xlink:href="#linearGradient873"
       id="linearGradient877"
       gradientUnits="userSpaceOnUse"
       x1="154.90942"
       y1="294.38077"
       x2="150.63474"
       y2="262.83667" />
    <linearGradient
       inkscape:collect="always"
       id="linearGradient873">
      <stop
         style="stop-color:#999999;stop-opacity:1"
         offset="0"
         id="stop869" />
      <stop
         style="stop-color:#e6e6e6;stop-opacity:1"
         offset="1"
         id="stop871" />
    </linearGradient>
    <linearGradient
       inkscape:collect="always"
       xlink:href="#linearGradient4850"
       id="linearGradient4852"
       x1="587"
       y1="759.51953"
       x2="587"
       y2="869.19153"
       gradientUnits="userSpaceOnUse"
       gradientTransform="matrix(0.89572387,0,0,0.89572387,60.653473,86.777711)" />
    <linearGradient
       inkscape:collect="always"
       id="linearGradient4850">
      <stop
         style="stop-color:#ffffff;stop-opacity:1;"
         offset="0"
         id="stop4846" />
      <stop
         style="stop-color:#ffffff;stop-opacity:0;"
         offset="1"
         id="stop4848" />
    </linearGradient>
    <filter
       inkscape:collect="always"
       style="color-interpolation-filters:sRGB"
       id="filter4842"
       x="-0.0087729208"
       width="1.0175458"
       y="-0.018982703"
       height="1.0379654">
      <feGaussianBlur
         inkscape:collect="always"
         stdDeviation="1.0297329"
         id="feGaussianBlur4844" />
    </filter>
  </defs>
  <sodipodi:namedview
     id="base"
     pagecolor="#ffffff"
     bordercolor="#666666"
     borderopacity="1.0"
     inkscape:pageopacity="0.0"
     inkscape:pageshadow="2"
     inkscape:zoom="1.4"
     inkscape:cx="221.10626"
     inkscape:cy="-21.861267"
     inkscape:document-units="mm"
     inkscape:current-layer="layer1"
     showgrid="false"
     inkscape:window-width="1366"
     inkscape:window-height="705"
     inkscape:window-x="-8"
     inkscape:window-y="-8"
     inkscape:window-maximized="1"
     showborder="true"
     fit-margin-top="0"
     fit-margin-left="0"
     fit-margin-right="0"
     fit-margin-bottom="0" />
  <metadata
     id="metadata1445">
    <rdf:RDF>
      <cc:Work
         rdf:about="">
        <dc:format>image/svg+xml</dc:format>
        <dc:type
           rdf:resource="http://purl.org/dc/dcmitype/StillImage" />
        <dc:title></dc:title>
      </cc:Work>
    </rdf:RDF>
  </metadata>
  <g
     inkscape:label="Layer 1"
     inkscape:groupmode="layer"
     id="layer1"
     transform="translate(3.0980295e-7,-69.456562)">
    <g
       id="g51"
       transform="matrix(0.26839866,0,0,0.20722086,36.744344,60.435017)"
       style="stroke-width:4.24026632">
      <g
         transform="translate(-234.26047,-150.18092)"
         id="g886"
         style="stroke-width:4.24026632">
        <g
           id="g895"
           style="stroke-width:4.24026632">
          <g
             style="stroke-width:4.99394703"
             transform="matrix(0.60037842,-0.60039432,0.6003876,0.6004035,-89.834621,191.31797)"
             id="g937">
            <g
               style="stroke-width:4.99394703"
               id="g925">
              <g
                 style="stroke-width:4.99394703"
                 id="g914">
                <g
                   style="stroke-width:4.99394703"
                   id="g904">
                  <path
                     id="path4653"
                     d="m 130.74809,258.23746 c -6.08868,0.0645 -12.55281,1.74643 -19.5833,6.12521 a 47.095833,47.095833 0 0 0 44.14562,30.78519 47.095833,47.095833 0 0 0 44.01747,-30.50664 c -7.60823,6.31661 -14.67509,8.12117 -21.52633,7.58195 -6.94496,-0.5466 -13.66445,-3.48601 -20.54035,-6.52621 -6.87589,-3.04019 -13.90909,-6.18303 -21.47052,-7.15564 -1.65406,-0.21276 -3.33365,-0.32197 -5.04259,-0.30386 z"
                     style="opacity:1;fill:#808080;fill-opacity:1;stroke:#000000;stroke-width:3.17115498;stroke-miterlimit:4;stroke-dasharray:none;stroke-opacity:0"
                     inkscape:connector-curvature="0" />
                  <path
                     id="path4752"
                     d="m 155.31041,200.95621 a 47.095833,47.095833 0 0 0 -44.01074,30.48857 c 6.67567,-4.09942 12.86323,-5.79197 18.69963,-5.97999 1.97726,-0.0637 3.91477,0.0452 5.81722,0.2899 7.60976,0.97883 14.664,4.13433 21.53925,7.17424 6.87526,3.03992 13.56992,5.96351 20.45715,6.50555 6.87741,0.54127 13.94925,-1.28163 21.62348,-7.75353 a 47.095833,47.095833 0 0 0 -44.12599,-30.72474 z"
                     style="opacity:1;fill:#00aa44;fill-opacity:1;stroke:#000000;stroke-width:3.17115498;stroke-miterlimit:4;stroke-dasharray:none;stroke-opacity:0"
                     inkscape:connector-curvature="0" />
                  <path
                     id="path4807"
                     d="m 157.69063,205.27222 a 47.095833,47.095833 0 0 0 -5.2033,0.22893 47.095833,47.095833 0 0 0 -35.85569,23.12417 c 4.67717,-2.08251 9.11611,-3.02357 13.36766,-3.16053 1.97726,-0.0637 3.91477,0.0452 5.81722,0.2899 7.60976,0.97883 14.664,4.13433 21.53925,7.17424 0.84559,0.37388 1.68822,0.74593 2.52904,1.11208 4.58962,-2.44532 9.3464,-4.62139 14.46424,-5.80792 1.86856,-0.43317 3.78558,-0.73488 5.75933,-0.86868 5.83507,-0.39557 12.17115,0.67523 19.23552,4.10105 a 47.095833,47.095833 0 0 0 -0.063,-0.14677 47.095833,47.095833 0 0 0 -41.59023,-26.04647 z"
                     style="opacity:0.36700056;fill:#000000;fill-opacity:1;stroke:#000000;stroke-width:3.17115498;stroke-miterlimit:4;stroke-dasharray:none;stroke-opacity:0"
                     inkscape:connector-curvature="0" />
                  <path
                     id="path4803"
                     d="M 155.31041,200.95621 A 47.095833,47.095833 0 0 0 111.2051,231.7042 c 7.66331,6.4525 14.72612,8.27088 21.59506,7.73028 6.88722,-0.54204 13.58189,-3.46563 20.45715,-6.50555 6.87525,-3.03991 13.92948,-6.19541 21.53925,-7.17424 1.90244,-0.24467 3.83997,-0.3536 5.81722,-0.2899 5.85258,0.18854 12.05803,1.8894 18.75493,6.01359 a 47.095833,47.095833 0 0 0 -44.0583,-30.52217 z"
                     style="opacity:1;fill:#2aff80;fill-opacity:1;stroke:#000000;stroke-width:3.17115498;stroke-miterlimit:4;stroke-dasharray:none;stroke-opacity:0"
                     inkscape:connector-curvature="0" />
                  <path
                     id="path4814"
                     d="m 150.63473,262.83667 c -5.62954,3.17276 -11.21232,6.035 -17.14831,7.1267 -6.76248,1.24367 -13.98151,0.17542 -22.20588,-5.3299 a 47.095833,47.095833 0 0 0 0.0806,0.18912 47.095833,47.095833 0 0 0 46.86174,25.62323 47.095833,47.095833 0 0 0 34.75085,-21.46792 c -5.24774,2.81482 -10.26533,3.63146 -15.1722,3.24527 -6.94496,-0.5466 -13.66445,-3.48601 -20.54035,-6.52621 -2.18881,-0.96779 -4.39381,-1.94502 -6.62647,-2.86029 z"
                     style="opacity:0.36700056;fill:#000000;fill-opacity:1;stroke:#000000;stroke-width:3.17115498;stroke-miterlimit:4;stroke-dasharray:none;stroke-opacity:0"
                     inkscape:connector-curvature="0" />
                  <path
                     id="circle4708"
                     d="m 179.14152,258.23746 c -1.45764,0.0152 -2.8936,0.1215 -4.31137,0.30386 -7.56142,0.97261 -14.59514,4.11544 -21.47104,7.15564 -6.87589,3.0402 -13.59538,5.97961 -20.54034,6.52621 -6.86609,0.54039 -13.94838,-1.27291 -21.57543,-7.62277 a 47.095833,47.095833 0 0 0 44.06707,30.54746 47.095833,47.095833 0 0 0 44.12393,-30.79811 c -7.30413,-4.5443 -13.99708,-6.17815 -20.29282,-6.11229 z"
                     style="opacity:1;fill:url(#linearGradient877);fill-opacity:1;stroke:#000000;stroke-width:3.17115498;stroke-miterlimit:4;stroke-dasharray:none;stroke-opacity:0"
                     inkscape:connector-curvature="0" />
                  <path
                     inkscape:connector-curvature="0"
                     id="path4819"
                     transform="matrix(0.29538493,0,0,0.29538493,-17.916122,-25.632828)"
                     d="m 586.14648,767.09766 c -5.39251,0.0204 -10.79453,0.30649 -16.18359,0.86914 -14.63067,1.3707 -29.16267,4.91912 -43.07617,10.28125 a 150.00001,150.00001 0 0 0 -86.07617,103.89648 c 32.29003,21.09297 75.68809,18.60281 110.25,2.04492 52.51936,-23.27544 112.80854,-53.86175 171.45312,-32.4082 a 150.00001,150.00001 0 0 0 -74.61133,-73.17187 c -19.63192,-7.56307 -40.62514,-11.59149 -61.75586,-11.51172 z"
                     style="opacity:1;fill:url(#linearGradient4852);fill-opacity:1;stroke:#000000;stroke-width:10.73567104;stroke-miterlimit:4;stroke-dasharray:none;stroke-opacity:0;filter:url(#filter4842)" />
                </g>
              </g>
            </g>
          </g>
        </g>
      </g>
      <g
         aria-label="Orbienge"
         transform="matrix(1.8827412,0,0,1.8827412,-2192.6377,-984.294)"
         style="font-style:normal;font-variant:normal;font-weight:normal;font-stretch:normal;font-size:40.00071716px;line-height:1.25;font-family:'Abril Fatface';-inkscape-font-specification:'Abril Fatface, Normal';font-variant-ligatures:normal;font-variant-caps:normal;font-variant-numeric:normal;font-feature-settings:normal;text-align:start;letter-spacing:0px;word-spacing:0px;writing-mode:lr-tb;text-anchor:start;fill:#00431b;fill-opacity:1;stroke:none;stroke-width:0.59588844"
         id="flowRoot4877">
        <path
           d="m 1179.6947,575.18955 v -2.96005 q 0,-7.32013 -0.7201,-9.24017 -0.8,-2.20004 -2.28,-2.72005 -0.84,-0.32 -2.04,-0.32 -1.2001,0 -2.0801,0.32 -0.84,0.32001 -1.4,1.12002 -0.56,0.80002 -0.92,1.68003 -0.32,0.88002 -0.52,2.48005 -0.24,2.32004 -0.24,6.84012 v 2.88005 q 0,4.88009 0.36,6.96013 0.4,2.04003 0.96,2.92005 1.24,1.96003 3.8401,1.96003 3.16,0 4.08,-2.64004 0.9601,-2.68005 0.9601,-9.28017 z m -5.1201,12.76023 q -6.6802,0 -10.0002,-3.60006 -3.2801,-3.64007 -3.2801,-10.48019 0,-6.88013 3.5201,-10.8002 3.5601,-3.96007 10.0402,-3.96007 6.4801,0 9.7601,3.76007 3.3201,3.72007 3.3201,10.60019 0,6.88012 -3.3601,10.68019 -3.32,3.80007 -10.0001,3.80007 z"
           style="font-style:normal;font-variant:normal;font-weight:normal;font-stretch:normal;font-size:40.00071716px;font-family:'Abril Fatface';-inkscape-font-specification:'Abril Fatface, Normal';font-variant-ligatures:normal;font-variant-caps:normal;font-variant-numeric:normal;font-feature-settings:normal;text-align:start;writing-mode:lr-tb;text-anchor:start;fill:#00431b;fill-opacity:1;stroke-width:0.59588844"
           id="path53"
           inkscape:connector-curvature="0" />
        <path
           d="m 1203.337,569.62945 q -1.4801,0 -2.6001,1.92004 -1.12,1.92003 -1.12,4.56008 v 10.72019 h 2.84 v 0.72001 h -12.4802 v -0.72001 h 2.2001 v -17.60032 h -2.2001 v -0.72001 h 9.6402 v 3.84007 q 0.52,-2.04004 2,-3.12006 1.4801,-1.12002 3.3601,-1.12002 1.88,0 3.04,1.08002 1.2001,1.04002 1.2001,3.00006 0,1.92003 -0.8801,2.96005 -0.88,1.04002 -2.72,1.04002 -1.8,0 -2.6801,-1.20002 -0.84,-1.20002 -0.2,-3.32006 h 1.4401 q 1,-2.04004 -0.84,-2.04004 z"
           style="font-style:normal;font-variant:normal;font-weight:normal;font-stretch:normal;font-size:40.00071716px;font-family:'Abril Fatface';-inkscape-font-specification:'Abril Fatface, Normal';font-variant-ligatures:normal;font-variant-caps:normal;font-variant-numeric:normal;font-feature-settings:normal;text-align:start;writing-mode:lr-tb;text-anchor:start;fill:#00431b;fill-opacity:1;stroke-width:0.59588844"
           id="path55"
           inkscape:connector-curvature="0" />
        <path
           d="m 1223.9523,576.78958 q 0,-4.12007 -0.4,-5.5201 -0.4,-1.44003 -1.56,-1.44003 -1.16,0 -2.08,1.44003 -0.9201,1.44003 -0.9201,3.96007 v 7.44014 q 0,1.72003 0.68,2.92005 0.7201,1.20002 2.0001,1.20002 1.32,0 1.8,-1.76003 0.48,-1.76003 0.48,-6.16011 z m -4.9601,-19.24035 v 14.00026 q 1.5201,-3.44007 5.2001,-3.44007 7.4802,0 7.4802,9.96018 0,5.08009 -2.0801,7.48014 -2.04,2.40004 -6.1601,2.40004 -2.08,0 -3.2,-0.64001 -1.0801,-0.64001 -1.4801,-2.12004 l -0.28,2.36004 h -9.1201 v -0.72001 h 2.2 v -28.56051 h -2.2 v -0.72002 z"
           style="font-style:normal;font-variant:normal;font-weight:normal;font-stretch:normal;font-size:40.00071716px;font-family:'Abril Fatface';-inkscape-font-specification:'Abril Fatface, Normal';font-variant-ligatures:normal;font-variant-caps:normal;font-variant-numeric:normal;font-feature-settings:normal;text-align:start;writing-mode:lr-tb;text-anchor:start;fill:#00431b;fill-opacity:1;stroke-width:0.59588844"
           id="path57"
           inkscape:connector-curvature="0" />
        <path
           d="m 1238.7482,565.74938 q -2.12,0 -3.04,-1.08002 -0.8801,-1.08002 -0.8801,-2.68005 0,-1.60002 0.9601,-2.64004 1,-1.04002 3,-1.04002 2.0001,0 3.0401,0.96002 1.04,0.92001 1.04,2.68004 0,1.72003 -1,2.76005 -1,1.04002 -3.1201,1.04002 z m -6.0401,2.76005 h 9.8002 v 18.32033 h 2.24 v 0.72001 h -11.8802 v -0.72001 h 2.2 v -17.60032 h -2.36 z"
           style="font-style:normal;font-variant:normal;font-weight:normal;font-stretch:normal;font-size:40.00071716px;font-family:'Abril Fatface';-inkscape-font-specification:'Abril Fatface, Normal';font-variant-ligatures:normal;font-variant-caps:normal;font-variant-numeric:normal;font-feature-settings:normal;text-align:start;writing-mode:lr-tb;text-anchor:start;fill:#00431b;fill-opacity:1;stroke-width:0.59588844"
           id="path59"
           inkscape:connector-curvature="0" />
        <path
           d="m 1256.0448,587.94978 q -5.1601,0 -7.7602,-2.64005 -2.56,-2.68005 -2.56,-7.40013 0,-4.76009 2.88,-7.28013 2.9201,-2.52005 7.4002,-2.52005 9.0801,0 8.7201,9.12017 h -11.2802 v 1.56003 q 0,3.92007 1,5.9201 1.0001,2.00004 3.4801,2.00004 4.6401,0 6.0801,-4.96009 l 0.72,0.12 q -0.76,2.88005 -2.76,4.48008 -1.9601,1.60003 -5.9201,1.60003 z m -2.5601,-11.52021 h 4.1201 v -1.96003 q 0,-3.24006 -0.4,-4.40008 -0.36,-1.20002 -1.52,-1.20002 -1.1201,0 -1.6801,1.28002 -0.52,1.24002 -0.52,4.32008 z"
           style="font-style:normal;font-variant:normal;font-weight:normal;font-stretch:normal;font-size:40.00071716px;font-family:'Abril Fatface';-inkscape-font-specification:'Abril Fatface, Normal';font-variant-ligatures:normal;font-variant-caps:normal;font-variant-numeric:normal;font-feature-settings:normal;text-align:start;writing-mode:lr-tb;text-anchor:start;fill:#00431b;fill-opacity:1;stroke-width:0.59588844"
           id="path61"
           inkscape:connector-curvature="0" />
        <path
           d="m 1266.23,568.50943 h 9.6401 v 3.68007 q 0.64,-1.84004 1.9601,-2.96006 1.32,-1.12002 4,-1.12002 6.2001,0 6.2001,6.68012 v 12.04022 h 2.2401 v 0.72001 h -11.3202 v -0.72001 h 1.64 v -13.00023 q 0,-2.40005 -0.32,-3.08006 -0.32,-0.72001 -1.16,-0.72001 -1.28,0 -2.2801,1.68003 -0.96,1.68003 -0.96,4.08007 v 11.0402 h 1.7201 v 0.72001 H 1266.23 v -0.72001 h 2.2 v -17.60032 h -2.2 z"
           style="font-style:normal;font-variant:normal;font-weight:normal;font-stretch:normal;font-size:40.00071716px;font-family:'Abril Fatface';-inkscape-font-specification:'Abril Fatface, Normal';font-variant-ligatures:normal;font-variant-caps:normal;font-variant-numeric:normal;font-feature-settings:normal;text-align:start;writing-mode:lr-tb;text-anchor:start;fill:#00431b;fill-opacity:1;stroke-width:0.59588844"
           id="path63"
           inkscape:connector-curvature="0" />
        <path
           d="m 1306.8001,566.42939 1.12,-0.68001 q 0.24,-1.24002 -0.96,-1.24002 -1.7201,0 -1.7201,2.64005 0,1.04002 0.28,2.40004 3.0401,2.04004 3.0401,5.24009 0,3.16006 -2.2,4.92009 -2.2001,1.76003 -5.9601,1.76003 -1.5601,0 -3.2401,-0.32 -1.76,1.12002 -1.76,1.68003 0,0.56001 2.56,0.56001 h 4.0801 q 9.0801,0 9.0801,6.52012 0,3.52006 -2.76,5.56009 -2.7201,2.08004 -8.5202,2.08004 -9.8801,0 -9.8801,-4.28007 0,-2.32005 3.08,-3.20006 l 2.4001,1.08002 q -0.32,1.16002 -0.32,2.20004 0,3.44006 5.12,3.44006 3.1201,0 4.8001,-1.16002 1.6801,-1.16002 1.6801,-2.88005 0,-1.72003 -1.0401,-2.32005 -1,-0.56001 -4.04,-0.56001 h -3.8801 q -3.2401,0 -4.6401,-1.08002 -1.4,-1.08001 -1.4,-2.64004 0,-1.60003 1,-2.64005 1,-1.08002 3.5601,-2.64005 -4.6401,-1.32002 -4.6401,-6.08011 0,-3.00005 2.16,-4.84008 2.1601,-1.84004 6.4801,-1.84004 2.6001,0 4.4401,1.00002 -0.24,-1.08002 -0.24,-1.96003 0,-2.24004 1.2,-3.24006 1.2001,-1.00002 2.6801,-1.00002 1.48,0 2.36,0.80002 0.9201,0.76001 0.9201,2.12003 0,1.36003 -0.7201,2.04004 -0.72,0.64001 -1.76,0.64001 -1,0 -1.68,-0.52001 -0.64,-0.56001 -0.68,-1.56003 z m -8.4802,7.48014 v 2.16004 q 0,2.68004 0.44,3.64006 0.48,0.96002 1.4,0.96002 0.9601,0 1.3601,-0.92002 0.44,-0.96001 0.44,-3.88007 v -1.96003 q 0,-3.12006 -0.4,-4.08008 -0.4,-1.00001 -1.3601,-1.00001 -0.92,0 -1.4,1.04002 -0.48,1.00001 -0.48,4.04007 z"
           style="font-style:normal;font-variant:normal;font-weight:normal;font-stretch:normal;font-size:40.00071716px;font-family:'Abril Fatface';-inkscape-font-specification:'Abril Fatface, Normal';font-variant-ligatures:normal;font-variant-caps:normal;font-variant-numeric:normal;font-feature-settings:normal;text-align:start;writing-mode:lr-tb;text-anchor:start;fill:#00431b;fill-opacity:1;stroke-width:0.59588844"
           id="path65"
           inkscape:connector-curvature="0" />
        <path
           d="m 1320.9678,587.94978 q -5.1601,0 -7.7601,-2.64005 -2.5601,-2.68005 -2.5601,-7.40013 0,-4.76009 2.8801,-7.28013 2.92,-2.52005 7.4001,-2.52005 9.0802,0 8.7202,9.12017 h -11.2802 v 1.56003 q 0,3.92007 1,5.9201 1,2.00004 3.4801,2.00004 4.64,0 6.0801,-4.96009 l 0.72,0.12 q -0.76,2.88005 -2.7601,4.48008 -1.96,1.60003 -5.9201,1.60003 z m -2.56,-11.52021 h 4.12 v -1.96003 q 0,-3.24006 -0.4,-4.40008 -0.36,-1.20002 -1.52,-1.20002 -1.12,0 -1.68,1.28002 -0.52,1.24002 -0.52,4.32008 z"
           style="font-style:normal;font-variant:normal;font-weight:normal;font-stretch:normal;font-size:40.00071716px;font-family:'Abril Fatface';-inkscape-font-specification:'Abril Fatface, Normal';font-variant-ligatures:normal;font-variant-caps:normal;font-variant-numeric:normal;font-feature-settings:normal;text-align:start;writing-mode:lr-tb;text-anchor:start;fill:#00431b;fill-opacity:1;stroke-width:0.59588844"
           id="path67"
           inkscape:connector-curvature="0" />
      </g>
    </g>
  </g>
</svg>
