<?xml version="1.0" encoding="UTF-8" standalone="no"?>
<!-- Created with Inkscape (http://www.inkscape.org/) -->

<svg
   xmlns:dc="http://purl.org/dc/elements/1.1/"
   xmlns:cc="http://creativecommons.org/ns#"
   xmlns:rdf="http://www.w3.org/1999/02/22-rdf-syntax-ns#"
   xmlns:svg="http://www.w3.org/2000/svg"
   xmlns="http://www.w3.org/2000/svg"
   xmlns:sodipodi="http://sodipodi.sourceforge.net/DTD/sodipodi-0.dtd"
   xmlns:inkscape="http://www.inkscape.org/namespaces/inkscape"
   width="70.910172mm"
   height="70.910179mm"
   viewBox="0 0 70.910171 70.910179"
   version="1.1"
   id="svg7921"
   inkscape:version="0.92.3 (2405546, 2018-03-11)"
   sodipodi:docname="rodrigo-avatar.svg">
  <defs
     id="defs7915" />
  <sodipodi:namedview
     id="base"
     pagecolor="#ffffff"
     bordercolor="#666666"
     borderopacity="1.0"
     inkscape:pageopacity="0.0"
     inkscape:pageshadow="2"
     inkscape:zoom="0.35"
     inkscape:cx="-253.42163"
     inkscape:cy="248.09447"
     inkscape:document-units="mm"
     inkscape:current-layer="layer1"
     showgrid="false"
     fit-margin-top="0"
     fit-margin-left="0"
     fit-margin-right="0"
     fit-margin-bottom="0"
     inkscape:window-width="1366"
     inkscape:window-height="705"
     inkscape:window-x="-8"
     inkscape:window-y="-8"
     inkscape:window-maximized="1" />
  <metadata
     id="metadata7918">
    <rdf:RDF>
      <cc:Work
         rdf:about="">
        <dc:format>image/svg+xml</dc:format>
        <dc:type
           rdf:resource="http://purl.org/dc/dcmitype/StillImage" />
        <dc:title></dc:title>
      </cc:Work>
    </rdf:RDF>
  </metadata>
  <g
     inkscape:label="Layer 1"
     inkscape:groupmode="layer"
     id="layer1"
     transform="translate(-47.018402,-58.11905)">
    <g
       transform="translate(30.312771,465.44038)"
       id="g8027">
      <path
         inkscape:connector-curvature="0"
         id="path8960-9"
         d="m 87.615801,-371.86624 a 35.455085,35.455085 0 0 1 -35.45509,35.45509 35.455085,35.455085 0 0 1 -35.45508,-35.45509 35.455085,35.455085 0 0 1 35.45508,-35.45509 35.455085,35.455085 0 0 1 35.45509,35.45509 z"
         style="opacity:0.97000002;vector-effect:none;fill:#89bbfe;fill-opacity:0.97254902;stroke:none;stroke-width:0.37061799;stroke-linecap:round;stroke-linejoin:round;stroke-miterlimit:4;stroke-dasharray:none;stroke-dashoffset:0;stroke-opacity:1;paint-order:stroke fill markers" />
      <g
         transform="matrix(0.11573431,0,0,0.11573431,22.532731,-399.32421)"
         id="g6711">
        <g
           id="g6627">
          <g
             id="g6585">
            <g
               id="g6583">
              <g
                 id="g6581">
                <g
                   id="g6579">
                  <path
                     inkscape:connector-curvature="0"
                     style="fill:#ff9870"
                     d="M 105,286 H 90 c -33.091,0 -60,-26.909 -60,-60 0,-33.091 26.909,-60 60,-60 h 15 c 8.291,0 15,6.709 15,15 v 90 c 0,8.291 -6.709,15 -15,15 z"
                     id="path6577" />
                </g>
              </g>
            </g>
          </g>
          <g
             id="g6591">
            <g
               id="g6589">
              <path
                 inkscape:connector-curvature="0"
                 style="fill:#f28155"
                 d="m 422,286 h -15 c -8.291,0 -15,-6.709 -15,-15 v -90 c 0,-8.291 6.709,-15 15,-15 h 15 c 33.091,0 60,26.909 60,60 0,33.091 -26.909,60 -60,60 z m 0,-30 h 0.293 z"
                 id="path6587" />
            </g>
          </g>
          <path
             inkscape:connector-curvature="0"
             style="fill:#ffc5ad"
             d="m 421,181 v 120 c 0,71.7 -45.601,134.7 -113.699,156.899 -1.501,0.3 -3.001,0.601 -4.501,0.601 h -93.6 c -1.5,0 -2.999,-0.3 -4.501,-0.601 C 136.601,435.7 91,372.7 91,301 V 181 c 0,-40.201 14.7,-79.2 41.4,-109.2 l 39.6,-7.2 84,67.2 80.7,-64.2 42.9,4.2 c 26.7,30 41.4,68.999 41.4,109.2 z"
             id="path6593" />
          <path
             inkscape:connector-curvature="0"
             style="fill:#ffac8c"
             d="m 421,181 v 120 c 0,71.7 -45.601,134.7 -113.699,156.899 -1.501,0.3 -3.001,0.601 -4.501,0.601 H 256 V 131.8 l 80.7,-64.2 42.9,4.2 c 26.7,30 41.4,68.999 41.4,109.2 z"
             id="path6595" />
          <g
             id="g6599">
            <circle
               style="fill:#57555c"
               cx="196"
               cy="241"
               r="15"
               id="circle6597" />
          </g>
          <g
             id="g6607">
            <g
               id="g6605">
              <g
                 id="g6603">
                <circle
                   style="fill:#3c3a41"
                   cx="316"
                   cy="241"
                   r="15"
                   id="circle6601" />
              </g>
            </g>
          </g>
          <g
             id="g6611">
            <path
               inkscape:connector-curvature="0"
               style="fill:#fd6244"
               d="M 309.101,354.101 C 295,368.2 276.099,376 256,376 c -20.099,0 -39,-7.8 -53.101,-21.899 -5.7,-6 -5.7,-15.3 0,-21.301 6,-5.7 15.3,-5.7 21.301,0 8.399,8.401 20.099,12.9 31.8,12.9 11.701,0 23.401,-4.499 31.8,-12.9 6,-5.7 15.3,-5.7 21.301,0 5.7,6 5.7,15.3 0,21.301 z"
               id="path6609" />
          </g>
          <g
             style="fill:#aa4400"
             id="g6615">
            <path
               inkscape:connector-curvature="0"
               style="fill:#aa4400"
               d="M 256,16 C 203.2,16 153.701,43.299 132.4,71.8 l 114.3,90.9 c 2.701,2.1 6,3.3 9.3,3.3 3.3,0 6.599,-1.199 9.3,-3.3 L 379.6,71.8 C 349.9,37.599 304.9,16 256,16 Z"
               id="path6613" />
          </g>
          <g
             id="g6619" />
          <path
             inkscape:connector-curvature="0"
             style="fill:#fd4e26"
             d="M 309.101,354.101 C 295,368.2 276.099,376 256,376 v -30.3 c 11.7,0 23.401,-4.499 31.8,-12.9 6,-5.7 15.3,-5.7 21.301,0 5.7,6 5.7,15.3 0,21.301 z"
             id="path6621" />
          <path
             inkscape:connector-curvature="0"
             style="fill:#aa4400"
             d="m 265.3,162.7 c -2.701,2.1 -6,3.3 -9.3,3.3 V 16 c 48.9,0 93.9,21.599 123.6,55.8 z"
             id="path6625" />
        </g>
        <g
           id="g6629" />
        <g
           id="g6631" />
        <g
           id="g6633" />
        <g
           id="g6635" />
        <g
           id="g6637" />
        <g
           id="g6639" />
        <g
           id="g6641" />
        <g
           id="g6643" />
        <g
           id="g6645" />
        <g
           id="g6647" />
        <g
           id="g6649" />
        <g
           id="g6651" />
        <g
           id="g6653" />
        <g
           id="g6655" />
        <g
           id="g6657" />
      </g>
    </g>
  </g>
</svg>
